<svg xmlns="http://www.w3.org/2000/svg" viewBox="0 0 900 320">
  <defs>
    <linearGradient id="shimmer" x1="0" y1="0" x2="1" y2="1">
      <stop offset="0%" stop-color="#C49A6C" stop-opacity="0"/>
      <stop offset="40%" stop-color="#C49A6C" stop-opacity="0.06"/>
      <stop offset="60%" stop-color="#C49A6C" stop-opacity="0.06"/>
      <stop offset="100%" stop-color="#C49A6C" stop-opacity="0"/>
    </linearGradient>
    <linearGradient id="accent-line" x1="0" y1="0" x2="1" y2="0">
      <stop offset="0%" stop-color="#C49A6C" stop-opacity="0"/>
      <stop offset="20%" stop-color="#C49A6C" stop-opacity="0.5"/>
      <stop offset="80%" stop-color="#C49A6C" stop-opacity="0.5"/>
      <stop offset="100%" stop-color="#C49A6C" stop-opacity="0"/>
    </linearGradient>
  </defs>

  <rect width="900" height="320" fill="#000000"/>
  <rect width="900" height="320" fill="url(#shimmer)"/>

  <!-- Triskelion mark -->
  <g transform="translate(450,120) scale(0.32)" fill="#FAFAFA">
    <circle r="26"/>
    <g stroke="#FAFAFA" stroke-width="16" fill="none" stroke-linecap="round">
      <path d="M 0,0 C 8,-42 58,-85 22,-155"/>
      <path d="M 0,0 C 8,-42 58,-85 22,-155" transform="rotate(120)"/>
      <path d="M 0,0 C 8,-42 58,-85 22,-155" transform="rotate(240)"/>
    </g>
    <circle cx="22" cy="-155" r="21"/>
    <circle cx="22" cy="-155" r="21" transform="rotate(120)"/>
    <circle cx="22" cy="-155" r="21" transform="rotate(240)"/>
  </g>

  <!-- Dot-matrix "nyzhi" wordmark -->
  <g transform="translate(0,0)" fill="#FAFAFA">
    <!-- n -->
    <circle cx="316" cy="196" r="3.2"/><circle cx="348" cy="196" r="3.2"/>
    <circle cx="316" cy="204" r="3.2"/><circle cx="324" cy="204" r="3.2"/><circle cx="348" cy="204" r="3.2"/>
    <circle cx="316" cy="212" r="3.2"/><circle cx="324" cy="212" r="3.2"/><circle cx="348" cy="212" r="3.2"/>
    <circle cx="316" cy="220" r="3.2"/><circle cx="332" cy="220" r="3.2"/><circle cx="348" cy="220" r="3.2"/>
    <circle cx="316" cy="228" r="3.2"/><circle cx="340" cy="228" r="3.2"/><circle cx="348" cy="228" r="3.2"/>
    <circle cx="316" cy="236" r="3.2"/><circle cx="340" cy="236" r="3.2"/><circle cx="348" cy="236" r="3.2"/>
    <circle cx="316" cy="244" r="3.2"/><circle cx="348" cy="244" r="3.2"/>
    <!-- y -->
    <circle cx="358" cy="196" r="3.2"/><circle cx="390" cy="196" r="3.2"/>
    <circle cx="358" cy="204" r="3.2"/><circle cx="390" cy="204" r="3.2"/>
    <circle cx="366" cy="212" r="3.2"/><circle cx="382" cy="212" r="3.2"/>
    <circle cx="374" cy="220" r="3.2"/>
    <circle cx="374" cy="228" r="3.2"/>
    <circle cx="374" cy="236" r="3.2"/>
    <circle cx="374" cy="244" r="3.2"/>
    <!-- z -->
    <circle cx="400" cy="196" r="3.2"/><circle cx="408" cy="196" r="3.2"/><circle cx="416" cy="196" r="3.2"/><circle cx="424" cy="196" r="3.2"/><circle cx="432" cy="196" r="3.2"/>
    <circle cx="432" cy="204" r="3.2"/>
    <circle cx="424" cy="212" r="3.2"/>
    <circle cx="416" cy="220" r="3.2"/>
    <circle cx="408" cy="228" r="3.2"/>
    <circle cx="400" cy="236" r="3.2"/>
    <circle cx="400" cy="244" r="3.2"/><circle cx="408" cy="244" r="3.2"/><circle cx="416" cy="244" r="3.2"/><circle cx="424" cy="244" r="3.2"/><circle cx="432" cy="244" r="3.2"/>
    <!-- h -->
    <circle cx="442" cy="196" r="3.2"/><circle cx="474" cy="196" r="3.2"/>
    <circle cx="442" cy="204" r="3.2"/><circle cx="474" cy="204" r="3.2"/>
    <circle cx="442" cy="212" r="3.2"/><circle cx="474" cy="212" r="3.2"/>
    <circle cx="442" cy="220" r="3.2"/><circle cx="450" cy="220" r="3.2"/><circle cx="458" cy="220" r="3.2"/><circle cx="466" cy="220" r="3.2"/><circle cx="474" cy="220" r="3.2"/>
    <circle cx="442" cy="228" r="3.2"/><circle cx="474" cy="228" r="3.2"/>
    <circle cx="442" cy="236" r="3.2"/><circle cx="474" cy="236" r="3.2"/>
    <circle cx="442" cy="244" r="3.2"/><circle cx="474" cy="244" r="3.2"/>
    <!-- i -->
    <circle cx="484" cy="196" r="3.2"/><circle cx="492" cy="196" r="3.2"/><circle cx="500" cy="196" r="3.2"/>
    <circle cx="492" cy="204" r="3.2"/>
    <circle cx="492" cy="212" r="3.2"/>
    <circle cx="492" cy="220" r="3.2"/>
    <circle cx="492" cy="228" r="3.2"/>
    <circle cx="492" cy="236" r="3.2"/>
    <circle cx="484" cy="244" r="3.2"/><circle cx="492" cy="244" r="3.2"/><circle cx="500" cy="244" r="3.2"/>
  </g>

  <!-- copper accent line -->
  <rect x="200" y="262" width="500" height="1" fill="url(#accent-line)"/>

  <!-- tagline -->
  <text x="450" y="286" text-anchor="middle" fill="#A1A1AA" font-family="-apple-system, BlinkMacSystemFont, 'Segoe UI', sans-serif" font-size="13" font-weight="400" letter-spacing="0.08em">AI CODING AGENT FOR THE TERMINAL</text>

  <!-- border -->
  <rect x="0.5" y="0.5" width="899" height="319" rx="8" fill="none" stroke="rgba(255,255,255,0.07)" stroke-width="1"/>
</svg>
