<svg xmlns="http://www.w3.org/2000/svg" viewBox="0 0 292 116">
  <rect width="292" height="116" fill="#0A0A0A"/>
  <g>
    <circle cx="28" cy="28" r="4" fill="#FFFFFF"/>
    <circle cx="68" cy="28" r="4" fill="#FFFFFF"/>
    <circle cx="28" cy="38" r="4" fill="#FFFFFF"/>
    <circle cx="38" cy="38" r="4" fill="#FFFFFF"/>
    <circle cx="68" cy="38" r="4" fill="#FFFFFF"/>
    <circle cx="28" cy="48" r="4" fill="#FFFFFF"/>
    <circle cx="38" cy="48" r="4" fill="#FFFFFF"/>
    <circle cx="68" cy="48" r="4" fill="#FFFFFF"/>
    <circle cx="28" cy="58" r="4" fill="#FFFFFF"/>
    <circle cx="48" cy="58" r="4" fill="#FFFFFF"/>
    <circle cx="68" cy="58" r="4" fill="#FFFFFF"/>
    <circle cx="28" cy="68" r="4" fill="#FFFFFF"/>
    <circle cx="58" cy="68" r="4" fill="#FFFFFF"/>
    <circle cx="68" cy="68" r="4" fill="#FFFFFF"/>
    <circle cx="28" cy="78" r="4" fill="#FFFFFF"/>
    <circle cx="58" cy="78" r="4" fill="#FFFFFF"/>
    <circle cx="68" cy="78" r="4" fill="#FFFFFF"/>
    <circle cx="28" cy="88" r="4" fill="#FFFFFF"/>
    <circle cx="68" cy="88" r="4" fill="#FFFFFF"/>
    <circle cx="82" cy="28" r="4" fill="#FFFFFF"/>
    <circle cx="122" cy="28" r="4" fill="#FFFFFF"/>
    <circle cx="82" cy="38" r="4" fill="#FFFFFF"/>
    <circle cx="122" cy="38" r="4" fill="#FFFFFF"/>
    <circle cx="92" cy="48" r="4" fill="#FFFFFF"/>
    <circle cx="112" cy="48" r="4" fill="#FFFFFF"/>
    <circle cx="102" cy="58" r="4" fill="#FFFFFF"/>
    <circle cx="102" cy="68" r="4" fill="#FFFFFF"/>
    <circle cx="102" cy="78" r="4" fill="#FFFFFF"/>
    <circle cx="102" cy="88" r="4" fill="#FFFFFF"/>
    <circle cx="136" cy="28" r="4" fill="#FFFFFF"/>
    <circle cx="146" cy="28" r="4" fill="#FFFFFF"/>
    <circle cx="156" cy="28" r="4" fill="#FFFFFF"/>
    <circle cx="166" cy="28" r="4" fill="#FFFFFF"/>
    <circle cx="176" cy="28" r="4" fill="#FFFFFF"/>
    <circle cx="176" cy="38" r="4" fill="#FFFFFF"/>
    <circle cx="166" cy="48" r="4" fill="#FFFFFF"/>
    <circle cx="156" cy="58" r="4" fill="#FFFFFF"/>
    <circle cx="146" cy="68" r="4" fill="#FFFFFF"/>
    <circle cx="136" cy="78" r="4" fill="#FFFFFF"/>
    <circle cx="136" cy="88" r="4" fill="#FFFFFF"/>
    <circle cx="146" cy="88" r="4" fill="#FFFFFF"/>
    <circle cx="156" cy="88" r="4" fill="#FFFFFF"/>
    <circle cx="166" cy="88" r="4" fill="#FFFFFF"/>
    <circle cx="176" cy="88" r="4" fill="#FFFFFF"/>
    <circle cx="190" cy="28" r="4" fill="#FFFFFF"/>
    <circle cx="230" cy="28" r="4" fill="#FFFFFF"/>
    <circle cx="190" cy="38" r="4" fill="#FFFFFF"/>
    <circle cx="230" cy="38" r="4" fill="#FFFFFF"/>
    <circle cx="190" cy="48" r="4" fill="#FFFFFF"/>
    <circle cx="230" cy="48" r="4" fill="#FFFFFF"/>
    <circle cx="190" cy="58" r="4" fill="#FFFFFF"/>
    <circle cx="200" cy="58" r="4" fill="#FFFFFF"/>
    <circle cx="210" cy="58" r="4" fill="#FFFFFF"/>
    <circle cx="220" cy="58" r="4" fill="#FFFFFF"/>
    <circle cx="230" cy="58" r="4" fill="#FFFFFF"/>
    <circle cx="190" cy="68" r="4" fill="#FFFFFF"/>
    <circle cx="230" cy="68" r="4" fill="#FFFFFF"/>
    <circle cx="190" cy="78" r="4" fill="#FFFFFF"/>
    <circle cx="230" cy="78" r="4" fill="#FFFFFF"/>
    <circle cx="190" cy="88" r="4" fill="#FFFFFF"/>
    <circle cx="230" cy="88" r="4" fill="#FFFFFF"/>
    <circle cx="244" cy="28" r="4" fill="#FFFFFF"/>
    <circle cx="254" cy="28" r="4" fill="#FFFFFF"/>
    <circle cx="264" cy="28" r="4" fill="#FFFFFF"/>
    <circle cx="254" cy="38" r="4" fill="#FFFFFF"/>
    <circle cx="254" cy="48" r="4" fill="#FFFFFF"/>
    <circle cx="254" cy="58" r="4" fill="#FFFFFF"/>
    <circle cx="254" cy="68" r="4" fill="#FFFFFF"/>
    <circle cx="254" cy="78" r="4" fill="#FFFFFF"/>
    <circle cx="244" cy="88" r="4" fill="#FFFFFF"/>
    <circle cx="254" cy="88" r="4" fill="#FFFFFF"/>
    <circle cx="264" cy="88" r="4" fill="#FFFFFF"/>
  </g>
</svg>
