<svg xmlns="http://www.w3.org/2000/svg" viewBox="0 0 384 116">
  <rect width="384" height="116" fill="#0A0A0A"/>
  <g transform="translate(54,58) scale(0.19)" fill="#FFFFFF">
    <circle r="26"/>
    <g stroke="#FFFFFF" stroke-width="16" fill="none" stroke-linecap="round">
      <path d="M 0,0 C 8,-42 58,-85 22,-155"/>
      <path d="M 0,0 C 8,-42 58,-85 22,-155" transform="rotate(120)"/>
      <path d="M 0,0 C 8,-42 58,-85 22,-155" transform="rotate(240)"/>
    </g>
    <circle cx="22" cy="-155" r="21"/>
    <circle cx="22" cy="-155" r="21" transform="rotate(120)"/>
    <circle cx="22" cy="-155" r="21" transform="rotate(240)"/>
  </g>
  <line x1="100" y1="30" x2="100" y2="86" stroke="#FFFFFF" stroke-width="1.5" opacity="0.25"/>
  <g>
    <circle cx="116" cy="28" r="4" fill="#FFFFFF"/>
    <circle cx="156" cy="28" r="4" fill="#FFFFFF"/>
    <circle cx="116" cy="38" r="4" fill="#FFFFFF"/>
    <circle cx="126" cy="38" r="4" fill="#FFFFFF"/>
    <circle cx="156" cy="38" r="4" fill="#FFFFFF"/>
    <circle cx="116" cy="48" r="4" fill="#FFFFFF"/>
    <circle cx="126" cy="48" r="4" fill="#FFFFFF"/>
    <circle cx="156" cy="48" r="4" fill="#FFFFFF"/>
    <circle cx="116" cy="58" r="4" fill="#FFFFFF"/>
    <circle cx="136" cy="58" r="4" fill="#FFFFFF"/>
    <circle cx="156" cy="58" r="4" fill="#FFFFFF"/>
    <circle cx="116" cy="68" r="4" fill="#FFFFFF"/>
    <circle cx="146" cy="68" r="4" fill="#FFFFFF"/>
    <circle cx="156" cy="68" r="4" fill="#FFFFFF"/>
    <circle cx="116" cy="78" r="4" fill="#FFFFFF"/>
    <circle cx="146" cy="78" r="4" fill="#FFFFFF"/>
    <circle cx="156" cy="78" r="4" fill="#FFFFFF"/>
    <circle cx="116" cy="88" r="4" fill="#FFFFFF"/>
    <circle cx="156" cy="88" r="4" fill="#FFFFFF"/>
    <circle cx="170" cy="28" r="4" fill="#FFFFFF"/>
    <circle cx="210" cy="28" r="4" fill="#FFFFFF"/>
    <circle cx="170" cy="38" r="4" fill="#FFFFFF"/>
    <circle cx="210" cy="38" r="4" fill="#FFFFFF"/>
    <circle cx="180" cy="48" r="4" fill="#FFFFFF"/>
    <circle cx="200" cy="48" r="4" fill="#FFFFFF"/>
    <circle cx="190" cy="58" r="4" fill="#FFFFFF"/>
    <circle cx="190" cy="68" r="4" fill="#FFFFFF"/>
    <circle cx="190" cy="78" r="4" fill="#FFFFFF"/>
    <circle cx="190" cy="88" r="4" fill="#FFFFFF"/>
    <circle cx="224" cy="28" r="4" fill="#FFFFFF"/>
    <circle cx="234" cy="28" r="4" fill="#FFFFFF"/>
    <circle cx="244" cy="28" r="4" fill="#FFFFFF"/>
    <circle cx="254" cy="28" r="4" fill="#FFFFFF"/>
    <circle cx="264" cy="28" r="4" fill="#FFFFFF"/>
    <circle cx="264" cy="38" r="4" fill="#FFFFFF"/>
    <circle cx="254" cy="48" r="4" fill="#FFFFFF"/>
    <circle cx="244" cy="58" r="4" fill="#FFFFFF"/>
    <circle cx="234" cy="68" r="4" fill="#FFFFFF"/>
    <circle cx="224" cy="78" r="4" fill="#FFFFFF"/>
    <circle cx="224" cy="88" r="4" fill="#FFFFFF"/>
    <circle cx="234" cy="88" r="4" fill="#FFFFFF"/>
    <circle cx="244" cy="88" r="4" fill="#FFFFFF"/>
    <circle cx="254" cy="88" r="4" fill="#FFFFFF"/>
    <circle cx="264" cy="88" r="4" fill="#FFFFFF"/>
    <circle cx="278" cy="28" r="4" fill="#FFFFFF"/>
    <circle cx="318" cy="28" r="4" fill="#FFFFFF"/>
    <circle cx="278" cy="38" r="4" fill="#FFFFFF"/>
    <circle cx="318" cy="38" r="4" fill="#FFFFFF"/>
    <circle cx="278" cy="48" r="4" fill="#FFFFFF"/>
    <circle cx="318" cy="48" r="4" fill="#FFFFFF"/>
    <circle cx="278" cy="58" r="4" fill="#FFFFFF"/>
    <circle cx="288" cy="58" r="4" fill="#FFFFFF"/>
    <circle cx="298" cy="58" r="4" fill="#FFFFFF"/>
    <circle cx="308" cy="58" r="4" fill="#FFFFFF"/>
    <circle cx="318" cy="58" r="4" fill="#FFFFFF"/>
    <circle cx="278" cy="68" r="4" fill="#FFFFFF"/>
    <circle cx="318" cy="68" r="4" fill="#FFFFFF"/>
    <circle cx="278" cy="78" r="4" fill="#FFFFFF"/>
    <circle cx="318" cy="78" r="4" fill="#FFFFFF"/>
    <circle cx="278" cy="88" r="4" fill="#FFFFFF"/>
    <circle cx="318" cy="88" r="4" fill="#FFFFFF"/>
    <circle cx="332" cy="28" r="4" fill="#FFFFFF"/>
    <circle cx="342" cy="28" r="4" fill="#FFFFFF"/>
    <circle cx="352" cy="28" r="4" fill="#FFFFFF"/>
    <circle cx="342" cy="38" r="4" fill="#FFFFFF"/>
    <circle cx="342" cy="48" r="4" fill="#FFFFFF"/>
    <circle cx="342" cy="58" r="4" fill="#FFFFFF"/>
    <circle cx="342" cy="68" r="4" fill="#FFFFFF"/>
    <circle cx="342" cy="78" r="4" fill="#FFFFFF"/>
    <circle cx="332" cy="88" r="4" fill="#FFFFFF"/>
    <circle cx="342" cy="88" r="4" fill="#FFFFFF"/>
    <circle cx="352" cy="88" r="4" fill="#FFFFFF"/>
  </g>
</svg>
